<?xml version="1.0" encoding="UTF-8"?>
<svg version="1.1" xmlns="http://www.w3.org/2000/svg" viewBox="0 0 512 512" width="100%" height="100%">
<path d="M0 0 C2.24904189 1.82546549 4.28044103 3.83962774 6.32495117 5.88916016 C6.92572983 6.47986298 7.52650848 7.0705658 8.14549255 7.6791687 C10.11929262 9.62458873 12.08169518 11.58101977 14.04296875 13.5390625 C15.41704332 14.90348947 16.7913398 16.26769299 18.16584778 17.63168335 C21.04162745 20.48952676 23.91116492 23.35347695 26.77709961 26.22119141 C30.4404046 29.88480117 34.12390689 33.52734089 37.81309032 37.16486549 C40.65706554 39.97539546 43.48721012 42.79954687 46.31371498 45.62763596 C47.66560748 46.97600117 49.022338 48.31953451 50.38405418 49.65797806 C52.29176134 51.53610772 54.17930526 53.4325293 56.06323242 55.33447266 C56.62276611 55.87714783 57.1822998 56.419823 57.75878906 56.97894287 C62.26539908 61.59521334 64.96125951 66.93100229 65.0236845 73.48763466 C64.4968154 81.28293992 60.9529029 86.49836043 55.47826672 91.89925671 C54.91775107 92.46413267 54.35723543 93.02900864 53.77973446 93.61100206 C51.89806087 95.50363145 50.00588028 97.38538851 48.11357117 99.26737976 C46.74931287 100.63509447 45.38570929 102.00346251 44.02270538 103.37242728 C40.27389123 107.13378318 36.51575493 110.8857028 32.75602782 114.63614619 C28.70351074 118.68188616 24.65962275 122.73623535 20.61462402 126.78948975 C12.68848023 134.72898734 4.75423002 142.66033598 -3.18293659 150.58881243 C-9.63235452 157.03146072 -16.07884503 163.4770245 -22.52324486 169.92469215 C-23.43975062 170.84165762 -24.35625638 171.75862308 -25.30053505 172.70337537 C-27.16226978 174.56606926 -29.02399777 176.42876989 -30.88571908 178.29147718 C-47.85352486 195.2675976 -64.82979092 212.23523475 -81.80960894 229.19933924 C-97.31166152 244.68715491 -112.80594022 260.18270748 -128.29370117 275.68481445 C-145.69249064 293.09966617 -163.09614142 310.50963422 -180.50757188 327.91184837 C-182.36349017 329.76681099 -184.21940218 331.62177989 -186.07530785 333.47675514 C-186.98849911 334.38948358 -187.90169037 335.30221201 -188.8425541 336.24259889 C-195.28362999 342.68108234 -201.72121361 349.12304499 -208.15746498 355.56635094 C-215.99905253 363.41634421 -223.84594611 371.26098642 -231.69973222 379.09877595 C-235.70823309 383.09938166 -239.71427775 387.10236845 -243.71388054 391.11187172 C-247.37333943 394.78025208 -251.03961936 398.44166642 -254.71152665 402.09758518 C-256.04053096 403.4232309 -257.3669976 404.75142645 -258.6906902 406.08237609 C-260.4872215 407.88800132 -262.29269994 409.68417979 -264.10074329 411.47826672 C-264.61516201 411.99970893 -265.12958073 412.52115115 -265.65958789 413.05839464 C-270.70694582 418.02793994 -275.27395946 420.43122479 -282.375 420.5 C-283.96441406 420.54640625 -283.96441406 420.54640625 -285.5859375 420.59375 C-292.81969022 419.33570605 -298.25005348 414.19703337 -303.27661133 409.11157227 C-303.84842133 408.54501923 -304.42023132 407.97846619 -305.0093689 407.39474487 C-306.87447802 405.54270906 -308.72854984 403.68007319 -310.58203125 401.81640625 C-311.88576777 400.51469354 -313.1899491 399.21342619 -314.49455261 397.9125824 C-317.21668261 395.19485812 -319.93335597 392.47182571 -322.64624023 389.74487305 C-326.11726102 386.25672752 -329.60162419 382.7822707 -333.09016895 379.31166172 C-335.78166377 376.63102294 -338.46595352 373.94326082 -341.14813805 371.25330925 C-342.43011236 369.96933974 -343.71430224 368.68757828 -345.00077248 367.40811348 C-346.79800953 365.61852446 -348.58530214 363.81954784 -350.37036133 362.01782227 C-350.89870071 361.49555557 -351.4270401 360.97328888 -351.97138977 360.43519592 C-357.05667785 355.26193433 -359.42694008 350.7716111 -359.375 343.5 C-359.38273437 342.4171875 -359.39046875 341.334375 -359.3984375 340.21875 C-358.59193915 333.70350842 -354.99880922 329.55944229 -350.47102928 325.08512592 C-349.90972405 324.51856158 -349.34841883 323.95199724 -348.77010435 323.36826429 C-346.8857123 321.46990638 -344.99082142 319.58239397 -343.09579468 317.69465637 C-341.72955425 316.32281131 -340.36396381 314.95031864 -338.99896872 313.57723445 C-335.24456789 309.8044643 -331.4808234 306.04113769 -327.71546197 302.27931082 C-323.65679251 298.22125299 -319.60672098 294.15462942 -315.55548096 290.0891571 C-307.61657811 282.12532512 -299.66934527 274.16985648 -291.718805 266.21764401 C-285.25752596 259.75494006 -278.79862068 253.28987337 -272.3413887 246.82312584 C-257.01803283 231.47764843 -241.69284726 216.13401018 -226.35764122 200.80037403 C-225.86725663 200.31003618 -225.37687204 199.81969832 -224.87162731 199.31450174 C-222.38615478 196.82927854 -219.90065835 194.34407923 -217.41515665 191.85888521 C-216.92152847 191.36531687 -216.4279003 190.87174853 -215.9193137 190.36322358 C-214.92107743 189.36510862 -213.92283913 188.36699571 -212.92459879 187.36888484 C-197.3917937 171.83791824 -181.87121924 156.29481926 -166.35986328 140.74243164 C-148.9326672 123.269155 -131.49535446 105.806062 -114.04372656 88.35718459 C-104.80368133 79.11813609 -95.56832863 69.87450584 -86.34492111 60.61884499 C-78.49285225 52.73949474 -70.63051674 44.87057214 -62.75460212 37.01505426 C-58.73579929 33.00606386 -54.72201068 28.99236836 -50.7211113 24.96550369 C-47.05862933 21.27949768 -43.38258824 17.60760625 -39.69523783 13.94648262 C-38.363555 12.6194205 -37.03692371 11.28726587 -35.71591417 9.94957874 C-24.96446309 -0.92856842 -14.97655976 -8.41661501 0 0 Z M-14.26311588 47.14006805 C-15.06922385 47.94755871 -15.06922385 47.94755871 -15.89161682 48.7713623 C-16.50722473 49.38559555 -17.12283264 49.9998288 -17.75709534 50.63267517 C-18.43610397 51.31527908 -19.11511261 51.997883 -19.81469727 52.70117188 C-20.52685394 53.41318253 -21.23901062 54.12519318 -21.9727478 54.85877991 C-24.33967688 57.22640887 -26.70303856 59.59756648 -29.06640625 61.96875 C-30.70143762 63.60564529 -32.33668908 65.24232077 -33.97215271 66.87878418 C-38.28653984 71.19699861 -42.59791623 75.51820709 -46.90869141 79.84002686 C-51.3038642 84.24540922 -55.70185157 88.64797969 -60.09960938 93.05078125 C-68.73584408 101.69775702 -77.36890364 110.34789553 -86 119 C-85.05536612 120.11081312 -84.1094707 121.22055349 -83.16305542 122.32984924 C-82.63644758 122.94795251 -82.10983974 123.56605577 -81.56727409 124.20288944 C-79.41888753 126.66633102 -77.13831725 128.97364767 -74.8203125 131.27734375 C-73.8921875 132.20224609 -72.9640625 133.12714844 -72.0078125 134.08007812 C-71.04693091 135.03260849 -70.08599274 135.98508178 -69.125 136.9375 C-68.14039081 137.91708237 -67.156014 138.89689837 -66.171875 139.87695312 C-63.78351797 142.25360252 -61.39284788 144.62787356 -59 147 C-54.12023249 142.93445329 -49.53144744 138.67173724 -45.05493164 134.16845703 C-44.40042023 133.51409164 -43.74590881 132.85972626 -43.07156372 132.18553162 C-40.93204586 130.04532311 -38.79608124 127.90160617 -36.66015625 125.7578125 C-35.16822345 124.26401251 -33.67606814 122.77043472 -32.18370056 121.27706909 C-28.27381051 117.36337761 -24.36693406 113.44669135 -20.46069336 109.52935791 C-16.46715994 105.52555912 -12.47076191 101.52462187 -8.47460938 97.5234375 C-0.64694515 89.68507787 7.17753599 81.84354907 15 74 C14.05497672 72.8892366 13.10876511 71.77948415 12.1620636 70.67015076 C11.63527165 70.05204749 11.10847971 69.43394423 10.56572437 68.79711056 C8.42464513 66.33961793 6.15827132 64.02854362 3.85546875 61.72265625 C2.47004883 60.33530273 2.47004883 60.33530273 1.05664062 58.91992188 C0.58589111 58.45126709 0.1151416 57.9826123 -0.36987305 57.49975586 C-1.83046259 56.04460429 -3.28553203 54.58408143 -4.74023438 53.12304688 C-5.65740234 52.20716797 -6.57457031 51.29128906 -7.51953125 50.34765625 C-8.35589111 49.51242432 -9.19225098 48.67719238 -10.05395508 47.81665039 C-12.19371101 45.53945235 -12.19371101 45.53945235 -14.26311588 47.14006805 Z M-117.36813217 150.24393368 C-118.25155152 151.12792261 -118.25155152 151.12792261 -119.15281773 152.0297699 C-120.16947241 153.04343801 -120.16947241 153.04343801 -121.20666558 154.07758427 C-121.9585967 154.83242824 -122.71052783 155.58727221 -123.48524475 156.36499023 C-124.27830833 157.15719939 -125.07137192 157.94940855 -125.88846773 158.76562405 C-128.56873951 161.44423715 -131.24540081 164.12643003 -133.92211914 166.80859375 C-135.83308009 168.720392 -137.74479384 170.63143683 -139.65647888 172.54251099 C-143.78386966 176.66937625 -147.9094189 180.79807517 -152.03373909 184.92800903 C-157.99688912 190.89927033 -163.96278358 196.86778336 -169.9293614 202.83561933 C-179.60859077 212.51703982 -189.28558276 222.20069349 -198.96118164 231.88574219 C-208.36268247 241.29641562 -217.76522825 250.70604297 -227.16918945 260.11425781 C-228.03801108 260.98347353 -228.03801108 260.98347353 -228.92438466 261.87024915 C-231.83000667 264.77717615 -234.73564931 267.68408252 -237.64130223 270.59097862 C-261.76406971 294.72412055 -285.88321196 318.86088272 -310 343 C-309.05536612 344.11081312 -308.1094707 345.22055349 -307.16305542 346.32984924 C-306.63644758 346.94795251 -306.10983974 347.56605577 -305.56727409 348.20288944 C-303.41888753 350.66633102 -301.13831725 352.97364767 -298.8203125 355.27734375 C-297.428125 356.66469727 -297.428125 356.66469727 -296.0078125 358.08007812 C-295.04693091 359.03260849 -294.08599274 359.98508178 -293.125 360.9375 C-292.14039081 361.91708237 -291.156014 362.89689837 -290.171875 363.87695312 C-287.78351797 366.25360252 -285.39284788 368.62787356 -283 371 C-277.74813835 366.60991389 -272.84977182 361.9898059 -268.02101135 357.14126587 C-266.86047813 355.98201428 -266.86047813 355.98201428 -265.67649978 354.79934347 C-263.09779052 352.22227465 -260.52265966 349.64166033 -257.94750977 347.06103516 C-256.09449892 345.2077421 -254.24126757 343.35466948 -252.38783264 341.50180054 C-248.40460431 337.51909514 -244.42320289 333.53457104 -240.44305611 329.54878616 C-234.68851411 323.78609788 -228.93119451 318.02619114 -223.17320537 312.26694743 C-213.83006422 302.92162068 -204.48915584 293.57406554 -195.1496582 284.22509766 C-186.08019574 275.14644836 -177.00967776 266.06885577 -167.93774414 256.99267578 C-167.37802804 256.43269695 -166.81831193 255.87271813 -166.24163473 255.29577024 C-163.43354101 252.48637143 -160.62542659 249.67699331 -157.81730187 246.86762547 C-134.54165771 223.581624 -111.26964005 200.29200139 -88 177 C-88.94502328 175.8892366 -89.89123489 174.77948415 -90.8379364 173.67015076 C-91.36472835 173.05204749 -91.89152029 172.43394423 -92.43427563 171.79711056 C-94.57535487 169.33961793 -96.84172868 167.02854362 -99.14453125 164.72265625 C-100.52995117 163.33530273 -100.52995117 163.33530273 -101.94335938 161.91992188 C-102.41410889 161.45126709 -102.8848584 160.9826123 -103.36987305 160.49975586 C-104.83046259 159.04460429 -106.28553203 157.58408143 -107.74023438 156.12304688 C-109.11598633 154.74922852 -109.11598633 154.74922852 -110.51953125 153.34765625 C-111.77407104 152.09480835 -111.77407104 152.09480835 -113.05395508 150.81665039 C-115.24760521 148.50819103 -115.24760521 148.50819103 -117.36813217 150.24393368 Z " fill="inherit" transform="translate(359,92)"/>
<path d="M0 0 C1.19629028 0.00323273 1.19629028 0.00323273 2.41674805 0.00653076 C13.94854791 0.05658097 25.10718832 0.3374977 36.3125 3.3125 C37.50020996 3.61849121 37.50020996 3.61849121 38.71191406 3.93066406 C64.95080913 10.84517151 88.150563 22.86810363 108.13671875 41.32421875 C109.88251374 42.91956821 111.64538102 44.41185732 113.5 45.875 C134.97143996 64.4835813 149.21555552 93.2694063 156.3125 120.3125 C156.52422852 121.10591797 156.73595703 121.89933594 156.95410156 122.71679688 C162.7696248 145.5918027 163.05146952 173.40290394 157.3125 196.3125 C157.14621094 197.02889648 156.97992188 197.74529297 156.80859375 198.48339844 C148.7973118 232.79838945 128.32433319 264.9173233 100.3125 286.3125 C99.39082031 287.04984375 98.46914063 287.7871875 97.51953125 288.546875 C80.40361795 301.94394614 53.47890408 317.94092976 30.9296875 316.71875 C24.53962185 315.72685921 20.75361925 313.36816164 16.875 308.1875 C13.59576918 302.73107494 12.47971118 297.38954441 13.76171875 291.11328125 C15.48033663 285.89782237 18.22606203 281.22281265 23.00390625 278.265625 C26.65889773 276.52038445 30.44205502 275.25894186 34.30078125 274.05078125 C66.11480409 264.05309275 90.92116841 243.82426939 106.54492188 214.19970703 C110.37090305 206.54578063 112.96316541 198.5208807 115.3125 190.3125 C115.65410156 189.18328125 115.99570312 188.0540625 116.34765625 186.890625 C121.17611519 167.75645282 120.10692417 145.12550782 114.3125 126.3125 C114.10351074 125.62591309 113.89452148 124.93932617 113.67919922 124.23193359 C104.14544892 94.04529502 83.05608713 69.7183695 55.25268555 54.95678711 C26.02320185 40.0801451 -6.54419857 37.63627831 -37.671875 47.55078125 C-55.04489636 53.46067512 -69.43317928 62.61321783 -82.6875 75.3125 C-83.44675781 76.00859375 -84.20601563 76.7046875 -84.98828125 77.421875 C-99.40846609 91.06999468 -107.9156094 108.7340494 -113.89868164 127.36865234 C-116.34274188 134.87352867 -118.81766223 140.83911726 -125.6875 145.3125 C-131.45311501 147.68657677 -136.69171411 147.75749378 -142.6875 146.3125 C-148.30103116 143.9053254 -151.74424257 140.72809367 -154.6875 135.3125 C-157.63608689 126.46673933 -155.37438389 117.38299108 -152.375 108.875 C-152.02034668 107.84584473 -151.66569336 106.81668945 -151.30029297 105.75634766 C-137.30491547 66.69515914 -108.53628956 35.06559291 -71.6875 16.3125 C-70.99849609 15.96058594 -70.30949219 15.60867188 -69.59960938 15.24609375 C-47.78162959 4.32703092 -24.24767912 -0.11777444 0 0 Z " fill="inherit" transform="translate(351.6875,-0.3125)"/>
<path d="M0 0 C4.80172198 2.96530182 8.41063455 6.43196143 10.234375 11.89453125 C10.7083434 16.55301603 10.61188443 21.15586813 10.484375 25.83203125 C10.46632813 27.08822266 10.44828125 28.34441406 10.4296875 29.63867188 C10.38275094 32.72475041 10.31709914 35.80923906 10.234375 38.89453125 C11.00515381 38.86311035 11.77593262 38.83168945 12.57006836 38.79931641 C16.10369851 38.67365501 19.63685729 38.59626032 23.171875 38.51953125 C24.38423828 38.46925781 25.59660156 38.41898437 26.84570312 38.3671875 C34.97313767 38.23503409 40.17538294 39.30042788 46.234375 44.89453125 C50.81894999 50.26183856 50.96067865 55.48589566 50.74609375 62.44140625 C49.74964006 69.16556705 46.62722783 73.02100637 41.390625 77.12109375 C35.83869648 80.13632092 29.42259337 79.31156709 23.296875 79.14453125 C22.04068359 79.12648438 20.78449219 79.1084375 19.49023438 79.08984375 C16.40415584 79.04290719 13.31966719 78.97725539 10.234375 78.89453125 C10.2657959 79.66531006 10.2972168 80.43608887 10.32958984 81.23022461 C10.45525124 84.76385476 10.53264593 88.29701354 10.609375 91.83203125 C10.65964844 93.04439453 10.70992188 94.25675781 10.76171875 95.50585938 C10.89387216 103.63329392 9.82847837 108.83553919 4.234375 114.89453125 C-1.13293231 119.47910624 -6.35698941 119.6208349 -13.3125 119.40625 C-20.0366608 118.40979631 -23.89210012 115.28738408 -27.9921875 110.05078125 C-31.00741467 104.49885273 -30.18266084 98.08274962 -30.015625 91.95703125 C-29.99757813 90.70083984 -29.97953125 89.44464844 -29.9609375 88.15039062 C-29.91400094 85.06431209 -29.84834914 81.97982344 -29.765625 78.89453125 C-30.53640381 78.92595215 -31.30718262 78.95737305 -32.10131836 78.98974609 C-35.63494851 79.11540749 -39.16810729 79.19280218 -42.703125 79.26953125 C-43.91548828 79.31980469 -45.12785156 79.37007813 -46.37695312 79.421875 C-54.50438767 79.55402841 -59.70663294 78.48863462 -65.765625 72.89453125 C-70.35019999 67.52722394 -70.49192865 62.30316684 -70.27734375 55.34765625 C-69.28089006 48.62349545 -66.15847783 44.76805613 -60.921875 40.66796875 C-55.36994648 37.65274158 -48.95384337 38.47749541 -42.828125 38.64453125 C-40.94383789 38.67160156 -40.94383789 38.67160156 -39.02148438 38.69921875 C-35.93540584 38.74615531 -32.85091719 38.81180711 -29.765625 38.89453125 C-29.7970459 38.12375244 -29.8284668 37.35297363 -29.86083984 36.55883789 C-29.98650124 33.02520774 -30.06389593 29.49204896 -30.140625 25.95703125 C-30.19089844 24.74466797 -30.24117188 23.53230469 -30.29296875 22.28320312 C-30.42512216 14.15576858 -29.35972837 8.95352331 -23.765625 2.89453125 C-17.29271618 -2.6344117 -7.84970384 -3.13766411 0 0 Z " fill="inherit" transform="translate(425.765625,357.10546875)"/>
<path d="M0 0 C4.80172198 2.96530182 8.41063455 6.43196143 10.234375 11.89453125 C10.7083434 16.55301603 10.61188443 21.15586813 10.484375 25.83203125 C10.46632813 27.08822266 10.44828125 28.34441406 10.4296875 29.63867188 C10.38275094 32.72475041 10.31709914 35.80923906 10.234375 38.89453125 C11.00515381 38.86311035 11.77593262 38.83168945 12.57006836 38.79931641 C16.10369851 38.67365501 19.63685729 38.59626032 23.171875 38.51953125 C24.38423828 38.46925781 25.59660156 38.41898438 26.84570312 38.3671875 C34.97313767 38.23503409 40.17538294 39.30042788 46.234375 44.89453125 C50.81894999 50.26183856 50.96067865 55.48589566 50.74609375 62.44140625 C49.74964006 69.16556705 46.62722783 73.02100637 41.390625 77.12109375 C35.83869648 80.13632092 29.42259337 79.31156709 23.296875 79.14453125 C22.04068359 79.12648438 20.78449219 79.1084375 19.49023438 79.08984375 C16.40415584 79.04290719 13.31966719 78.97725539 10.234375 78.89453125 C10.2657959 79.66531006 10.2972168 80.43608887 10.32958984 81.23022461 C10.45525124 84.76385476 10.53264593 88.29701354 10.609375 91.83203125 C10.65964844 93.04439453 10.70992188 94.25675781 10.76171875 95.50585938 C10.89387216 103.63329392 9.82847837 108.83553919 4.234375 114.89453125 C-1.13293231 119.47910624 -6.35698941 119.6208349 -13.3125 119.40625 C-20.0366608 118.40979631 -23.89210012 115.28738408 -27.9921875 110.05078125 C-31.00741467 104.49885273 -30.18266084 98.08274962 -30.015625 91.95703125 C-29.99757812 90.70083984 -29.97953125 89.44464844 -29.9609375 88.15039062 C-29.91400094 85.06431209 -29.84834914 81.97982344 -29.765625 78.89453125 C-30.53640381 78.92595215 -31.30718262 78.95737305 -32.10131836 78.98974609 C-35.63494851 79.11540749 -39.16810729 79.19280218 -42.703125 79.26953125 C-43.91548828 79.31980469 -45.12785156 79.37007813 -46.37695312 79.421875 C-54.50438767 79.55402841 -59.70663294 78.48863462 -65.765625 72.89453125 C-70.35019999 67.52722394 -70.49192865 62.30316684 -70.27734375 55.34765625 C-69.28089006 48.62349545 -66.15847783 44.76805613 -60.921875 40.66796875 C-55.36994648 37.65274158 -48.95384337 38.47749541 -42.828125 38.64453125 C-40.94383789 38.67160156 -40.94383789 38.67160156 -39.02148438 38.69921875 C-35.93540584 38.74615531 -32.85091719 38.81180711 -29.765625 38.89453125 C-29.7970459 38.12375244 -29.8284668 37.35297363 -29.86083984 36.55883789 C-29.98650124 33.02520774 -30.06389593 29.49204896 -30.140625 25.95703125 C-30.19089844 24.74466797 -30.24117187 23.53230469 -30.29296875 22.28320312 C-30.42512216 14.15576858 -29.35972837 8.95352331 -23.765625 2.89453125 C-17.29271618 -2.6344117 -7.84970384 -3.13766411 0 0 Z " fill="inherit" transform="translate(105.765625,37.10546875)"/>
</svg>
